<?xml version="1.0" encoding="UTF-8" standalone="no"?>
<!DOCTYPE svg PUBLIC "-//W3C//DTD SVG 1.1//EN"
 "http://www.w3.org/Graphics/SVG/1.1/DTD/svg11.dtd">
<!-- Generated by graphviz version 2.43.0 (0)
 -->
<!-- Title: IsoStateSpace Pages: 1 -->
<svg width="164pt" height="151pt"
 viewBox="0.00 0.00 164.00 151.00" xmlns="http://www.w3.org/2000/svg" xmlns:xlink="http://www.w3.org/1999/xlink">
<g id="graph0" class="graph" transform="scale(1 1) rotate(0) translate(4 147)">
<title>IsoStateSpace</title>
<!-- Node1 -->
<g id="node1" class="node">
<title>Node1</title>
<g id="a_node1"><a xlink:title=" ">
<polygon fill="#bfbfbf" stroke="black" points="35,-0.5 35,-19.5 121,-19.5 121,-0.5 35,-0.5"/>
<text text-anchor="middle" x="78" y="-7.5" font-family="Roboto" font-size="10.00">IsoStateSpace</text>
</a>
</g>
</g>
<!-- Node2 -->
<g id="node2" class="node">
<title>Node2</title>
<g id="a_node2"><a xlink:href="classrobowflex_1_1darts_1_1StateSpace.html" target="_top" xlink:title="An OMPL state space for robowflex::darts::World. Can do motion planning for any of the robots or stru...">
<polygon fill="none" stroke="black" points="0,-56.5 0,-75.5 156,-75.5 156,-56.5 0,-56.5"/>
<text text-anchor="middle" x="78" y="-63.5" font-family="Roboto" font-size="10.00">robowflex::darts::StateSpace</text>
</a>
</g>
</g>
<!-- Node2&#45;&gt;Node1 -->
<g id="edge1" class="edge">
<title>Node2&#45;&gt;Node1</title>
<path fill="none" stroke="midnightblue" d="M78,-45.8C78,-36.91 78,-26.78 78,-19.75"/>
<polygon fill="midnightblue" stroke="midnightblue" points="74.5,-46.08 78,-56.08 81.5,-46.08 74.5,-46.08"/>
</g>
<!-- Node3 -->
<g id="node3" class="node">
<title>Node3</title>
<g id="a_node3"><a xlink:title=" ">
<polygon fill="none" stroke="#bfbfbf" points="0.5,-112.5 0.5,-142.5 155.5,-142.5 155.5,-112.5 0.5,-112.5"/>
<text text-anchor="start" x="8.5" y="-130.5" font-family="Roboto" font-size="10.00">ompl::base::RealVectorState</text>
<text text-anchor="middle" x="78" y="-119.5" font-family="Roboto" font-size="10.00">Space</text>
</a>
</g>
</g>
<!-- Node3&#45;&gt;Node2 -->
<g id="edge2" class="edge">
<title>Node3&#45;&gt;Node2</title>
<path fill="none" stroke="midnightblue" d="M78,-102.29C78,-92.86 78,-82.65 78,-75.66"/>
<polygon fill="midnightblue" stroke="midnightblue" points="74.5,-102.4 78,-112.4 81.5,-102.4 74.5,-102.4"/>
</g>
</g>
</svg>
